<mxfile host="app.diagrams.net" modified="2023-12-01T06:07:41.767Z" agent="Mozilla/5.0 (Windows NT 10.0; Win64; x64) AppleWebKit/537.36 (KHTML, like Gecko) Chrome/119.0.0.0 Safari/537.36" version="22.1.5" etag="Pi8pPQ508qOLj6qPgUSe" type="github">
  <diagram name="페이지-1" id="wf6PYqeMoHBN6Vhi6HJ2">
    <mxGraphModel>
      <root>
        <mxCell id="0" />
        <mxCell id="1" parent="0" />
      </root>
    </mxGraphModel>
  </diagram>
</mxfile>
